<svg width="83" height="64" viewBox="0 0 83 64" fill="none"
  xmlns="http://www.w3.org/2000/svg">
  <path fill-rule="evenodd" clip-rule="evenodd" d="M45.9023 3.44163e-07C42.0626 0.658184 38.3567 2.6208 34.6308 4.59397C33.2656 5.31695 31.8978 6.04134 30.5197 6.7035C27.4587 8.17432 24.043 9.32185 20.6395 10.4653C11.7769 13.4428 2.99618 16.3928 0.771458 24.9513C-2.60756 37.9505 5.55018 52.3186 16.726 59.7682C25.0763 65.3343 35.1601 62.7582 45.1038 60.2178C47.2086 59.6801 49.3071 59.144 51.3816 58.687C53.6045 58.1974 55.9632 57.8066 58.3486 57.4113C68.0139 55.8099 78.1187 54.1356 81.4091 45.5202C84.3411 37.8432 78.727 31.0389 73.1206 24.2442C71.072 21.7613 69.0245 19.2798 67.3953 16.7574C66.6443 15.5946 65.9217 14.3946 65.1994 13.1952C63.0205 9.57704 60.8447 5.96395 57.9023 3.39251V26.6308V31.144V35.6572C57.9023 37.3257 57.2075 38.919 55.9847 40.0542L52.5125 43.2779L49.0403 46.5016C47.9305 47.5319 46.4722 48.1045 44.9579 48.1045H39.4023H33.8468C32.3325 48.1045 30.8742 47.5319 29.7644 46.5016L26.2922 43.2779L22.82 40.0542C21.5972 38.919 20.9023 37.3257 20.9023 35.6572V31.144V26.6308C20.9023 23.3171 23.5886 20.6308 26.9023 20.6308C30.2161 20.6308 32.9023 23.3171 32.9023 26.6308V31.144V33.0405L34.4569 34.4837L36.2027 36.1045H39.4023H42.602L44.3478 34.4837L45.9023 33.0405V31.144V26.6308V3.44163e-07Z" fill="white"/>
</svg>
