<svg width="85" height="67" viewBox="0 0 85 67" fill="none"
  xmlns="http://www.w3.org/2000/svg">
  <path fill-rule="evenodd" clip-rule="evenodd" d="M1.86913 26.8469C4.94823 15.0015 20.5858 13.8998 31.6174 8.59908C38.7591 5.16752 45.6258 0.064716 53.2701 2.14888C60.8669 4.22009 64.2209 12.0385 68.493 18.6529C74.5807 28.0785 86.5101 36.9336 82.5068 47.4157C78.4043 58.1575 63.7086 58.1091 52.4793 60.5826C40.6044 63.1983 27.9415 68.4081 17.8237 61.6638C6.64785 54.2142 -1.50989 39.8461 1.86913 26.8469Z" fill="#191f35"/>
  <mask id="mask0" style="mask-type:alpha" maskUnits="userSpaceOnUse" x="0" y="0" width="85" height="67">
    <path fill-rule="evenodd" clip-rule="evenodd" d="M1.86913 26.8467C4.94823 15.0013 20.5858 13.8995 31.6174 8.59884C38.7591 5.16728 45.6258 0.0644719 53.2701 2.14863C60.8669 4.21985 64.2209 12.0383 68.493 18.6527C74.5807 28.0783 86.5101 36.9333 82.5068 47.4155C78.4043 58.1573 63.7086 58.1088 52.4793 60.5824C40.6044 63.1981 27.9415 68.4078 17.8237 61.6635C6.64785 54.2139 -1.50989 39.8458 1.86913 26.8467Z" fill="#191f35"/>
  </mask>
  <g mask="url(#mask0)">
    <path d="M28 28.5261V33.0392V37.5524L31.4722 40.7761L34.9444 43.9998H40.5H46.0556L49.5278 40.7761L53 37.5524V33.0392V28.5261V-5.00024" stroke="white" stroke-width="12" stroke-linecap="round" stroke-linejoin="round"/>
  </g>
</svg>
