<svg width="761" height="770" viewBox="0 0 761 770" fill="none"
  xmlns="http://www.w3.org/2000/svg">
  <path fill-rule="evenodd" clip-rule="evenodd" d="M547.068 614.115C510.753 648.98 483.887 713.193 431.238 704.117C378.364 695.002 361.489 613.304 318.014 574.629C273.212 534.773 195.503 533.513 175.499 476.611C155.714 420.334 213.818 380.044 231.579 328.768C248.641 279.51 232.523 203.051 277.37 182.506C323.159 161.529 376.214 228.409 429.056 238.301C478.69 247.591 528.132 207.879 572.8 237.807C617.984 268.08 637.416 330.284 646.696 384.121C655.231 433.635 639.953 479.084 621.668 521.295C604.98 559.821 576.148 586.196 547.068 614.115Z" stroke="#ffffff" opacity=".06" stroke-width="2"/>
  <path fill-rule="evenodd" clip-rule="evenodd" d="M169.201 196.728C156.409 209.009 146.946 231.627 128.402 228.43C109.778 225.22 103.834 196.443 88.5204 182.82C72.7394 168.782 45.3677 168.338 38.3215 148.295C31.3526 128.472 51.819 114.281 58.075 96.2196C64.0847 78.8693 58.4075 51.9378 74.2039 44.7012C90.3325 37.3124 109.02 60.8698 127.633 64.3538C145.116 67.6263 162.531 53.6382 178.265 64.1799C194.18 74.8432 201.025 96.7536 204.293 115.717C207.3 133.157 201.918 149.166 195.478 164.034C189.599 177.604 179.444 186.895 169.201 196.728Z" fill="#ffffff" opacity=".06" stroke="#ffffff"/>
</svg>
