<svg width="719" height="706" viewBox="0 0 719 706" fill="none"
  xmlns="http://www.w3.org/2000/svg">
  <path fill-rule="evenodd" clip-rule="evenodd" d="M169.174 498.769C131.861 464.973 65.93 442.653 71.3111 389.499C76.7153 336.118 157.037 313.585 192.585 267.518C229.219 220.045 225.056 142.437 280.423 118.513C335.183 94.8502 379.428 150.003 431.818 164.143C482.146 177.728 557.294 156.316 580.918 199.62C605.038 243.834 542.022 301.425 535.84 354.828C530.035 404.989 573.099 451.541 546.36 498.188C519.313 545.374 458.615 569.097 405.558 582.11C356.759 594.079 310.355 582.008 266.971 566.712C227.375 552.752 199.053 525.831 169.174 498.769Z" stroke="#ffffff" opacity=".15" stroke-width="2"/>
</svg>
