<svg width="2063" height="961" viewBox="0 0 2063 961" fill="none"
  xmlns="http://www.w3.org/2000/svg">
  <path fill-rule="evenodd" clip-rule="evenodd" d="M1849.07 805.115C1812.75 839.98 1785.89 904.193 1733.24 895.117C1680.36 886.002 1663.49 804.304 1620.01 765.629C1575.21 725.773 1497.5 724.513 1477.5 667.611C1457.71 611.334 1515.82 571.044 1533.58 519.768C1550.64 470.51 1534.52 394.051 1579.37 373.506C1625.16 352.529 1678.21 419.409 1731.06 429.301C1780.69 438.591 1830.13 398.879 1874.8 428.807C1919.98 459.08 1939.42 521.284 1948.7 575.121C1957.23 624.635 1941.95 670.084 1923.67 712.295C1906.98 750.821 1878.15 777.196 1849.07 805.115Z" stroke="#E5EAFA" stroke-width="2"/>
  <path fill-rule="evenodd" clip-rule="evenodd" d="M1471.2 387.728C1458.41 400.009 1448.95 422.627 1430.4 419.43C1411.78 416.22 1405.83 387.443 1390.52 373.82C1374.74 359.782 1347.37 359.338 1340.32 339.295C1333.35 319.472 1353.82 305.281 1360.07 287.22C1366.08 269.869 1360.41 242.938 1376.2 235.701C1392.33 228.312 1411.02 251.87 1429.63 255.354C1447.12 258.626 1464.53 244.638 1480.26 255.18C1496.18 265.843 1503.02 287.754 1506.29 306.717C1509.3 324.157 1503.92 340.166 1497.48 355.034C1491.6 368.604 1481.44 377.895 1471.2 387.728Z" fill="#E5EAFA" stroke="#E5EAFA"/>
  <path fill-rule="evenodd" clip-rule="evenodd" d="M169.174 498.769C131.861 464.973 65.93 442.653 71.3111 389.499C76.7153 336.118 157.037 313.585 192.585 267.518C229.219 220.045 225.056 142.437 280.423 118.513C335.183 94.8502 379.428 150.003 431.818 164.143C482.146 177.728 557.294 156.316 580.918 199.62C605.038 243.834 542.022 301.425 535.84 354.828C530.035 404.989 573.099 451.541 546.36 498.188C519.313 545.374 458.615 569.097 405.558 582.11C356.759 594.079 310.355 582.008 266.971 566.712C227.375 552.752 199.053 525.831 169.174 498.769Z" stroke="#E5EAFA" stroke-width="2"/>
</svg>
