<svg width="865" height="876" viewBox="0 0 865 876" fill="none" xmlns="http://www.w3.org/2000/svg">
<g filter="url(#filter0_d_1101_88)">
<path fill-rule="evenodd" clip-rule="evenodd" d="M890.073 537.876C906.553 516.845 923.708 495.474 942.277 477.647C945.055 474.98 947.825 472.326 950.585 469.682C1004.81 417.725 1055.06 369.576 1084.78 300.977C1120.3 218.972 1148.62 133.512 1132.7 41.1698C1123.74 -10.7913 1109.98 -66.175 1087.87 -115.581C1065.74 -165.023 1035.65 -207.589 994.528 -235.139C956.135 -260.863 915.433 -257.343 868.756 -247.629C861.425 -246.103 853.902 -244.403 846.222 -242.667C806.587 -233.708 762.727 -223.794 719.059 -231.968C690.946 -237.23 663.486 -249.915 637.365 -264.515C621.192 -273.554 604.676 -283.849 588.66 -293.831C579.177 -299.742 569.869 -305.544 560.912 -310.91C536.083 -325.787 512.882 -338.03 490.914 -344.267C469.269 -350.412 449.742 -350.471 431.377 -342.058C395.349 -325.553 381.888 -286.054 374.615 -231.469C372.468 -215.348 370.973 -199.119 369.441 -182.486C368.386 -171.04 367.314 -159.403 365.999 -147.476C362.867 -119.059 358.451 -90.3541 349.566 -64.7041C340.319 -38.0084 325.972 -13.149 310.86 10.3383C304.523 20.187 298.224 29.5512 292.042 38.7406C283.015 52.1607 274.239 65.2083 265.96 78.8489C238.72 123.729 222.856 165.956 239.965 214.621C257.345 264.058 299.831 290.354 353.309 314.463C363.789 319.187 375.035 323.969 386.514 328.851C403.073 335.892 420.115 343.139 436.039 350.715C463.739 363.893 491.036 379.341 514.393 400.12C537.079 420.301 555.904 445.725 572.825 472.016C582.689 487.341 592.412 503.81 601.881 519.85C608.327 530.77 614.656 541.491 620.832 551.516C652.859 603.504 683.927 642.003 728.455 649.679C772.415 657.257 806.604 634.998 840.48 598.387C855.336 582.332 869.463 564.249 883.996 545.645C886.013 543.064 888.038 540.473 890.073 537.876ZM861.766 618.082C825.937 656.804 782.443 688.413 723.529 678.257C664.742 668.123 627.666 617.899 596.141 566.726C589.272 555.576 582.763 544.535 576.3 533.573C567.211 518.157 558.214 502.897 548.44 487.711C532.059 462.26 514.907 439.391 495.118 421.788C474.705 403.628 450.194 389.564 423.58 376.903C407.759 369.375 392.172 362.762 376.386 356.064C364.883 351.183 353.274 346.257 341.391 340.9C287.292 316.512 234.314 285.985 212.606 224.239C191.056 162.941 212.63 110.823 241.169 63.8022C249.625 49.8699 259.248 35.543 268.691 21.4844C274.816 12.3652 280.866 3.35896 286.472 -5.35365C301.199 -28.2424 314.058 -50.7955 322.163 -74.1958C329.948 -96.67 334.097 -122.733 337.174 -150.653C338.358 -161.39 339.4 -172.648 340.454 -184.019C342.057 -201.325 343.684 -218.895 345.87 -235.299C353.092 -289.512 367.698 -344.784 419.298 -368.423C445.668 -380.503 472.651 -379.598 498.834 -372.164C524.695 -364.822 550.639 -350.873 575.817 -335.787C585.754 -329.833 595.445 -323.787 605.056 -317.791C620.518 -308.144 635.773 -298.627 651.513 -289.83C676.664 -275.772 700.883 -264.874 724.395 -260.473C761.634 -253.502 798.556 -261.765 838.182 -270.632C846.282 -272.444 854.495 -274.282 862.847 -276.02C910.54 -285.946 961.783 -291.986 1010.67 -259.232C1057.84 -227.629 1090.88 -179.846 1114.34 -127.428C1137.81 -74.9757 1152.1 -16.9898 1161.28 36.2434C1178.71 137.401 1147.32 229.55 1111.39 312.504C1079.28 386.64 1025.05 438.549 971.698 489.621C968.581 492.604 965.467 495.585 962.361 498.567C945.45 514.802 929.434 534.662 912.899 555.763C910.904 558.309 908.9 560.875 906.886 563.454C892.441 581.949 877.508 601.07 861.766 618.082Z" fill="#E5EAFA"/>
</g>
<path fill-rule="evenodd" clip-rule="evenodd" d="M915.095 -248.72C845.46 -243.031 767.67 -195.023 709.37 -82.0478C650.922 31.2135 599.889 85.9371 550.102 110.913C500.301 135.895 451.916 131.014 399.16 125.564C346.648 120.139 280.477 138.68 239.244 193.6C198.032 248.494 181.545 339.99 228.945 480.864L228.951 480.882L228.956 480.9C236.224 505.535 270.153 597.622 358.081 658.255C445.923 718.829 587.918 748.182 811.706 646.928C958.504 580.508 1051.45 503.919 1107.52 424.675C1163.58 345.441 1182.81 263.491 1182.08 186.254C1180.83 54.4063 1121.42 -63.6471 1087.52 -131.002C1081.68 -142.606 1076.6 -152.706 1072.7 -161.111C1046.43 -217.78 984.762 -254.411 915.095 -248.72ZM914.932 -250.713C985.395 -256.47 1047.88 -219.417 1074.52 -161.953C1078.39 -153.603 1083.45 -143.55 1089.27 -131.984C1123.15 -64.6801 1182.82 53.8662 1184.08 186.235C1184.82 263.839 1165.48 346.213 1109.15 425.83C1052.83 505.437 959.56 582.225 812.531 648.75C588.277 750.215 445.506 720.971 356.946 659.901C268.493 598.906 234.378 506.335 227.044 481.484C179.533 340.272 195.891 248.014 237.645 192.399C279.38 136.81 346.301 118.092 399.366 123.574C452.188 129.031 499.998 133.809 549.205 109.125C598.425 84.434 649.212 30.1663 707.592 -82.965C766.12 -196.382 844.437 -244.954 914.932 -250.713Z" fill="#E5EAFA"/>
<defs>
<filter id="filter0_d_1101_88" x="83.8521" y="-493.65" width="1202.38" height="1297.83" filterUnits="userSpaceOnUse" color-interpolation-filters="sRGB">
<feFlood flood-opacity="0" result="BackgroundImageFix"/>
<feColorMatrix in="SourceAlpha" type="matrix" values="0 0 0 0 0 0 0 0 0 0 0 0 0 0 0 0 0 0 127 0" result="hardAlpha"/>
<feOffset dy="4"/>
<feGaussianBlur stdDeviation="60"/>
<feComposite in2="hardAlpha" operator="out"/>
<feColorMatrix type="matrix" values="0 0 0 0 0.211765 0 0 0 0 0.352941 0 0 0 0 0.823529 0 0 0 0.05 0"/>
<feBlend mode="normal" in2="BackgroundImageFix" result="effect1_dropShadow_1101_88"/>
<feBlend mode="normal" in="SourceGraphic" in2="effect1_dropShadow_1101_88" result="shape"/>
</filter>
</defs>
</svg>
