<svg width="74" height="70" viewBox="0 0 74 70" fill="none"
  xmlns="http://www.w3.org/2000/svg">
  <path fill-rule="evenodd" clip-rule="evenodd" d="M62.0489 24.001C67.0183 32.943 76.601 41.2962 72.2092 51.4248C67.7278 61.7602 54.2973 65.572 42.8723 68.2273C32.93 70.5379 23.0454 69.56 15.058 64.707C6.88084 59.7387 -0.181572 52.1065 0.531629 42.5018C1.20567 33.4243 11.1441 27.7826 18.3065 20.9593C26.5596 13.0968 33.1427 0.177653 44.1551 0.943422C55.255 1.71528 57.09 15.0778 62.0489 24.001Z" fill="#E5EAFA"/>
  <path d="M47.3339 47.5331C48.9541 47.2041 50.3943 46.2848 51.3748 44.9537C52.3554 43.6226 52.8063 41.9747 52.6402 40.3298C52.474 38.6849 51.7026 37.1604 50.4757 36.0522C49.2487 34.9441 47.6538 34.3314 46.0006 34.3331H44.3206C43.8788 32.6228 43.0193 31.0491 41.8191 29.7531C40.6189 28.4571 39.1157 27.4794 37.4443 26.9078C35.773 26.3363 33.9859 26.1887 32.2434 26.4784C30.501 26.7681 28.8577 27.486 27.4612 28.5676C26.0648 29.6492 24.9587 31.0607 24.2425 32.6754C23.5262 34.29 23.2221 36.0572 23.3576 37.8184C23.493 39.5796 24.0636 41.2796 25.0183 42.7657C25.973 44.2519 27.2818 45.4777 28.8272 46.3331" stroke="#191f35" stroke-width="2" stroke-linecap="round" stroke-linejoin="round"/>
  <path d="M39.3338 39.6665L34.0005 47.6665H42.0005L36.6672 55.6665" stroke="#191f35" stroke-width="2" stroke-linecap="round" stroke-linejoin="round"/>
</svg>
