<svg width="83" height="64" viewBox="0 0 83 64" fill="none"
  xmlns="http://www.w3.org/2000/svg">
  <path fill-rule="evenodd" clip-rule="evenodd" d="M1.50682 25.6968C4.58592 13.8514 20.2235 12.7496 31.2551 7.44893C38.3968 4.01738 45.2635 -1.08543 52.9078 0.998732C60.5046 3.06994 63.8586 10.8884 68.1307 17.5028C74.2184 26.9284 86.1478 35.7834 82.1445 46.2656C78.042 57.0074 63.3463 56.9589 52.117 59.4325C40.2421 62.0482 27.5792 67.2579 17.4614 60.5136C6.28555 53.064 -1.87219 38.6959 1.50682 25.6968Z" fill="#E5EAFA"/>
  <path d="M40.0003 45.3332C47.3641 45.3332 53.3337 39.3636 53.3337 31.9998C53.3337 24.636 47.3641 18.6665 40.0003 18.6665C32.6365 18.6665 26.667 24.636 26.667 31.9998C26.667 39.3636 32.6365 45.3332 40.0003 45.3332Z" stroke="#191f35" stroke-width="2" stroke-linecap="round" stroke-linejoin="round"/>
  <path d="M40.0005 40C44.4188 40 48.0005 36.4183 48.0005 32C48.0005 27.5817 44.4188 24 40.0005 24C35.5822 24 32.0005 27.5817 32.0005 32C32.0005 36.4183 35.5822 40 40.0005 40Z" stroke="#191f35" stroke-width="2" stroke-linecap="round" stroke-linejoin="round"/>
  <path d="M40.0007 34.6668C41.4734 34.6668 42.6673 33.4729 42.6673 32.0002C42.6673 30.5274 41.4734 29.3335 40.0007 29.3335C38.5279 29.3335 37.334 30.5274 37.334 32.0002C37.334 33.4729 38.5279 34.6668 40.0007 34.6668Z" stroke="#191f35" stroke-width="2" stroke-linecap="round" stroke-linejoin="round"/>
</svg>
